<?xml version="1.0" encoding="UTF-8"?>
<svg width="55px" height="54px" viewBox="0 0 55 54" version="1.1" xmlns="http://www.w3.org/2000/svg" xmlns:xlink="http://www.w3.org/1999/xlink">
    <title>Episodes</title>
    <g id="MIro" stroke="none" stroke-width="1" fill="none" fill-rule="evenodd">
        <g id="NetDigital-Player-Series" transform="translate(-442.000000, -640.000000)">
            <g id="Episodes" transform="translate(442.666667, 640.000000)">
                <circle id="Oval" cx="26.6666667" cy="26.6666667" r="26.6666667"></circle>
                <g id="Group-5" transform="translate(12.682927, 14.959350)" fill="#FFFFFF">
                    <rect id="Rectangle" x="0.470142977" y="8.59837398" width="18.3355761" height="12.8780488" rx="1.33"></rect>
                    <path d="M6.50157275,4.30569106 L22.1771489,4.30569106 C22.9116876,4.30569106 23.5071489,4.90115234 23.5071489,5.63569106 L23.5071489,15.8537398 C23.5071489,16.5882786 22.9116876,17.1837398 22.1771489,17.1837398 L20.216148,17.1837398 L20.216148,17.1837398 L20.216148,8.64056911 C20.216148,7.90603039 19.6206867,7.31056911 18.886148,7.31056911 L5.17157275,7.31056911 L5.17157275,7.31056911 L5.17157275,5.63569106 C5.17157275,4.90115234 5.76703403,4.30569106 6.50157275,4.30569106 Z" id="Rectangle-Copy-6"></path>
                    <path d="M10.7328595,0.0130081301 L26.4084357,0.0130081301 C27.1429744,0.0130081301 27.7384357,0.608469413 27.7384357,1.34300813 L27.7384357,11.5610569 C27.7384357,12.2955956 27.1429744,12.8910569 26.4084357,12.8910569 L24.4474348,12.8910569 L24.4474348,12.8910569 L24.4474348,4.34788618 C24.4474348,3.61334746 23.8519735,3.01788618 23.1174348,3.01788618 L9.40285955,3.01788618 L9.40285955,3.01788618 L9.40285955,1.34300813 C9.40285955,0.608469413 9.99832083,0.0130081301 10.7328595,0.0130081301 Z" id="Rectangle-Copy-7"></path>
                </g>
            </g>
        </g>
    </g>
</svg>