<?xml version="1.0" encoding="utf-8"?>
<!-- Generator: Adobe Illustrator 23.0.1, SVG Export Plug-In . SVG Version: 6.00 Build 0)  -->
<svg version="1.1" id="Capa_1" xmlns="http://www.w3.org/2000/svg" xmlns:xlink="http://www.w3.org/1999/xlink" x="0px" y="0px"
	 viewBox="0 0 513.3 513.3" style="enable-background:new 0 0 513.3 513.3;" xml:space="preserve">
<style type="text/css">
	.st0{fill:#FFFFFF;}
</style>
<g>
	<g>
		<path class="st0" d="M382.4,119.5c-7.1-7.1-17.7-7.1-24.8,0c-7.1,7.1-7.1,19.5,0,26.6c54.9,62,54.9,159.5,0,219.7
			c-7.1,7.1-7.1,19.5,0,26.6c5.3,8.9,17.7,8.9,24.8,0C451.6,318,451.6,195.7,382.4,119.5z"/>
	</g>
</g>
<g>
	<g>
		<path class="st0" d="M155.6,146.1c7.1-7.1,7.1-19.5,0-26.6c-7.1-7.1-17.7-7.1-24.8,0c-69.1,74.4-69.1,198.5,0,272.9
			c7.1,8.9,19.5,8.9,24.8,0c7.1-7.1,7.1-19.5,0-26.6C100.7,303.8,100.7,206.4,155.6,146.1z"/>
	</g>
</g>
<g>
	<g>
		<path class="st0" d="M331.1,174.5c-7.1-7.1-17.7-7.1-24.8,0c-7.1,7.1-7.1,19.5,0,26.6c28.4,30.1,28.4,79.7,0,109.9
			c-7.1,7.1-7.1,19.5,0,26.6c7.1,8.9,19.5,8.9,24.8,1.8C371.8,293.2,371.8,220.5,331.1,174.5z"/>
	</g>
</g>
<g>
	<g>
		<path class="st0" d="M207,199.3c7.1-7.1,7.1-19.5,0-26.6s-17.7-7.1-24.8,0c-40.8,46.1-40.8,118.7,0,164.8
			c5.3,8.9,17.7,8.9,24.8-1.8c7.1-7.1,7.1-19.5,0-26.6C178.7,279,178.7,229.4,207,199.3z"/>
	</g>
</g>
<g>
	<g>
		<circle class="st0" cx="256.6" cy="256" r="35.4"/>
	</g>
</g>
</svg>
