<?xml version="1.0" encoding="UTF-8"?>
<svg width="55px" height="54px" viewBox="0 0 55 54" version="1.1" xmlns="http://www.w3.org/2000/svg" xmlns:xlink="http://www.w3.org/1999/xlink">
    <title>Forward10s</title>
    <g id="MIro" stroke="none" stroke-width="1" fill="none" fill-rule="evenodd">
        <g id="NetDigital-Player-Series" transform="translate(-698.000000, -640.000000)">
            <g id="Forward10s" transform="translate(698.666667, 640.000000)">
                <circle id="Oval" cx="26.6666667" cy="26.6666667" r="26.6666667"></circle>
                <g id="Icon/Player/Forward10seg" transform="translate(11.333333, 11.333333)">
                    <g>
                        <rect id="Rectangle" x="0" y="0" width="30.6666667" height="30.6666667"></rect>
                        <path d="M24.4352714,18.3524548 C24.4352714,23.3441829 20.3785498,27.4009045 15.3868217,27.4009045 C10.3950937,27.4009045 6.3383721,23.3441829 6.3383721,18.3524548 C6.3383721,13.3607268 10.3950937,9.3040052 15.3868217,9.3040052 L15.3868217,15.336305 L22.9271965,7.79593026 L15.3868217,0.255555556 L15.3868217,6.28785532 C8.72113051,6.28785532 3.32222222,11.6867636 3.32222222,18.3524548 C3.32222222,25.0181461 8.72113051,30.4170544 15.3868217,30.4170544 C22.052513,30.4170544 27.4514213,25.0181461 27.4514213,18.3524548 L24.4352714,18.3524548 Z M13.7279393,22.8766797 L13.7279393,16.4371997 L13.5922126,16.4371997 L10.9229199,17.3872869 L10.9229199,18.4278586 L12.4460756,17.9603554 L12.4460756,22.8766797 L13.7279393,22.8766797 Z M18.8855556,16.5126034 C18.6141021,16.4070382 18.3275679,16.3617959 17.9957914,16.3617959 C17.6640149,16.3617959 17.3774807,16.4070382 17.1060272,16.5126034 C16.8345737,16.6181687 16.6083625,16.7840569 16.4273935,17.0102681 C16.2464245,17.2364794 16.0805362,17.5230136 15.9900517,17.8698709 C15.8995672,18.2167281 15.8392442,18.6239083 15.8392442,19.1064923 L15.8392442,20.2224678 C15.8392442,20.7050518 15.8995672,21.1273127 16.0051325,21.4590892 C16.1106977,21.7908657 16.2615052,22.0924807 16.457555,22.3186919 C16.6536047,22.5449032 16.8798159,22.7107914 17.1512694,22.8163567 C17.4227229,22.9219219 17.7092572,22.9671642 18.0410336,22.9671642 C18.3728101,22.9671642 18.6593444,22.9219219 18.9307979,22.8163567 C19.2022514,22.7107914 19.4284626,22.5449032 19.6094316,22.3186919 C19.7904006,22.0924807 19.9412081,21.8059465 20.0467733,21.4590892 C20.1523386,21.112232 20.1975808,20.7050518 20.1975808,20.2224678 L20.1975808,19.1064923 C20.1975808,18.6239083 20.1372578,18.2016474 20.0316926,17.8698709 C19.9261273,17.5380944 19.7753198,17.2364794 19.5792701,17.0102681 C19.3832203,16.7840569 19.1419284,16.6181687 18.8855556,16.5126034 Z M18.9006364,20.388356 C18.9006364,20.6748903 18.8855556,20.9161822 18.8403134,21.112232 C18.7950711,21.3082817 18.7498289,21.47417 18.6744251,21.594816 C18.5990214,21.715462 18.5085369,21.8059465 18.3878909,21.8511887 C18.2672449,21.896431 18.1465989,21.9265925 18.0108721,21.9265925 C17.8751454,21.9265925 17.7394187,21.896431 17.6338534,21.8511887 C17.5282882,21.8059465 17.4227229,21.715462 17.3473192,21.594816 C17.2719154,21.47417 17.2115924,21.3082817 17.1663502,21.112232 C17.1211079,20.9161822 17.1060272,20.6748903 17.1060272,20.388356 L17.1060272,18.9255233 C17.1060272,18.6389891 17.1211079,18.3976971 17.1663502,18.2016474 C17.2115924,18.0055976 17.2568347,17.8547901 17.3473192,17.7341441 C17.4378037,17.6134981 17.5132074,17.5230136 17.6338534,17.4777714 C17.7544994,17.4325291 17.8751454,17.4023676 18.0108721,17.4023676 C18.1465989,17.4023676 18.2823256,17.4325291 18.3878909,17.4777714 C18.4934561,17.5230136 18.5990214,17.6134981 18.6744251,17.7341441 C18.7498289,17.8547901 18.8101519,18.0055976 18.8553941,18.2016474 C18.9006364,18.3976971 18.9157171,18.6389891 18.9157171,18.9255233 L18.9157171,20.388356 L18.9006364,20.388356 Z" id="icon/av/forward_10_24px" fill="#FFFFFF"></path>
                    </g>
                </g>
            </g>
        </g>
    </g>
</svg>