<?xml version="1.0" encoding="utf-8"?>
<!-- Generator: Adobe Illustrator 23.0.1, SVG Export Plug-In . SVG Version: 6.00 Build 0)  -->
<svg version="1.1" id="Layer_1" xmlns="http://www.w3.org/2000/svg" xmlns:xlink="http://www.w3.org/1999/xlink" x="0px" y="0px"
	 viewBox="0 0 55 55" style="enable-background:new 0 0 55 55;" xml:space="preserve">
<style type="text/css">
	.st0{fill:#FFFFFF;}
</style>
<title>Play</title>
<g>
	<path class="st0" d="M24.6,36.7c0,2.1-1.7,3.7-3.7,3.7l0,0c-2.1,0-3.7-1.7-3.7-3.7V17.3c0-2.1,1.7-3.7,3.7-3.7l0,0
		c2.1,0,3.7,1.7,3.7,3.7V36.7z"/>
	<path class="st0" d="M38.6,36.7c0,2.1-1.7,3.7-3.7,3.7l0,0c-2.1,0-3.7-1.7-3.7-3.7V17.3c0-2.1,1.7-3.7,3.7-3.7l0,0
		c2.1,0,3.7,1.7,3.7,3.7V36.7z"/>
</g>
</svg>
