<?xml version="1.0" encoding="UTF-8"?>
<svg width="54px" height="54px" viewBox="0 0 54 54" version="1.1" xmlns="http://www.w3.org/2000/svg" xmlns:xlink="http://www.w3.org/1999/xlink">
    <title>Subtitles</title>
    <g id="MIro" stroke="none" stroke-width="1" fill="none" fill-rule="evenodd">
        <g id="NetDigital-Player-Series" transform="translate(-784.000000, -640.000000)">
            <g id="Subtitles" transform="translate(784.000000, 640.000000)">
                <circle id="Oval" cx="26.6666667" cy="26.6666667" r="26.6666667"></circle>
                <g id="Icon/Player/subtitlesAudio" transform="translate(11.333333, 11.333333)">
                    <g>
                        <rect id="Rectangle" x="0" y="0" width="30.6666667" height="30.6666667"></rect>
                        <path d="M26,2.66666667 L4.66666667,2.66666667 C3.2,2.66666667 2,3.90600442 2,5.42075055 L2,21.9452539 C2,23.46 3.2,24.6993377 4.66666667,24.6993377 C11.4074074,24.6993377 16.462963,24.6993377 19.8333333,24.6993377 C19.8333333,24.6993377 20.9166667,26.0190029 23.0833333,28.6583333 L26,24.6993377 C27.4666667,24.6993377 28.6666667,23.46 28.6666667,21.9452539 L28.6666667,5.42075055 C28.6666667,3.90600442 27.4666667,2.66666667 26,2.66666667 Z M4.66666667,13.6830022 L10,13.6830022 L10,16.4370861 L4.66666667,16.4370861 L4.66666667,13.6830022 Z M18,21.9452539 L4.66666667,21.9452539 L4.66666667,19.19117 L18,19.19117 L18,21.9452539 Z M26,21.9452539 L20.6666667,21.9452539 L20.6666667,19.19117 L26,19.19117 L26,21.9452539 Z M26,16.4370861 L12.6666667,16.4370861 L12.6666667,13.6830022 L26,13.6830022 L26,16.4370861 Z" id="icon/av/subtitles_24px" fill="#FFFFFF"></path>
                    </g>
                </g>
            </g>
        </g>
    </g>
</svg>