<?xml version="1.0" encoding="UTF-8"?>
<svg width="56px" height="56px" viewBox="0 0 56 56" version="1.1" xmlns="http://www.w3.org/2000/svg" xmlns:xlink="http://www.w3.org/1999/xlink">
    <!-- Generator: Sketch 64 (93537) - https://sketch.com -->
    <title>Icons/Net/SideBar/Series</title>
    <desc>Created with Sketch.</desc>
    <g id="Icons/Net/SideBar/Series" stroke="none" stroke-width="1" fill="none" fill-rule="evenodd">
        <g id="Icon/sidebar/Series">
            <rect id="Rectangle" x="0" y="0" width="56" height="56"></rect>
        </g>
        <g id="Group-3" transform="translate(6.000000, 6.000000)">
            <g id="Group" transform="translate(18.000000, 18.000000)" stroke="#FFFFFF" stroke-linecap="round" stroke-linejoin="round" stroke-width="2.72727273">
                <path d="M0,11.4124006 L0,3.13305396 C-5.67062619e-16,2.12889987 0.814027728,1.31487214 1.81818182,1.31487214 C2.13459443,1.31487214 2.44552953,1.39744545 2.72025262,1.55443007 L9.96468091,5.69410338 C10.8365308,6.19230332 11.139434,7.30294817 10.641234,8.17479807 C10.4801626,8.45667312 10.246556,8.69027971 9.96468091,8.85135117 L2.72025262,12.9910245 C1.84840271,13.4892244 0.737757868,13.1863213 0.239557923,12.3144714 C0.0825733042,12.0397483 -7.90442798e-16,11.7288132 0,11.4124006 Z" id="Path-Copy"></path>
            </g>
            <path d="M28.2175449,0.523402339 C28.7790663,-0.115484183 29.7521891,-0.178201041 30.3910757,0.383320317 C31.0299622,0.944841675 31.092679,1.91796453 30.5311577,2.55685106 L30.5311577,2.55685106 L25.747,8 L37.2053129,8 C40.9841033,8 44.0474181,10.9615652 44.0474181,14.614841 L44.0474181,36.3067169 C44.0474181,39.9599927 40.9841033,42.9215579 37.2053129,42.9215579 L6.84210526,42.9215579 C3.06331487,42.9215579 1.16916577e-12,39.9599927 1.16916577e-12,36.3067169 L1.16916577e-12,14.614841 C1.16916577e-12,10.9615652 3.06331487,8 6.84210526,8 L20.167,8 L15.3833203,2.55685106 C14.8548296,1.95554609 14.8792974,1.05817019 15.4166484,0.486533192 L15.5234023,0.383320317 C16.1622889,-0.178201041 17.1354117,-0.115484183 17.6969331,0.523402339 L17.6969331,0.523402339 L22.957239,6.50846152 Z M37.2053129,11.0530035 L6.84210526,11.0530035 C4.80737197,11.0530035 3.15789474,12.6476925 3.15789474,14.614841 L3.15789474,36.3067169 C3.15789474,38.2738654 4.80737197,39.8685543 6.84210526,39.8685543 L37.2053129,39.8685543 C39.2400462,39.8685543 40.8895234,38.2738654 40.8895234,36.3067169 L40.8895234,14.614841 C40.8895234,12.6476925 39.2400462,11.0530035 37.2053129,11.0530035 Z" id="Live-Copy" fill="#FFFFFF"></path>
        </g>
    </g>
</svg>