<?xml version="1.0" encoding="UTF-8"?>
<svg width="56px" height="56px" viewBox="0 0 56 56" version="1.1" xmlns="http://www.w3.org/2000/svg" xmlns:xlink="http://www.w3.org/1999/xlink">
    <!-- Generator: Sketch 64 (93537) - https://sketch.com -->
    <title>Icons/Net/SideBar/AoVivo</title>
    <desc>Created with Sketch.</desc>
    <g id="Icons/Net/SideBar/AoVivo" stroke="none" stroke-width="1" fill="none" fill-rule="evenodd">
        <g id="Icon/sidebar/AoVivo">
            <rect id="Rectangle" x="0" y="0" width="56" height="56"></rect>
        </g>
        <g id="Group-3" transform="translate(6.000000, 6.000000)" fill="#FFFFFF">
            <path d="M30.7792278,0.383456825 C31.3956972,0.912135732 31.4889166,1.80554651 31.0178003,2.44165786 L30.9228426,2.55776164 L26.019,7.99999999 L36.8103588,7.99918049 C36.0018406,8.84140266 35.4180098,9.90096396 35.1552381,11.0814926 L6.84210528,11.0813109 C4.80737199,11.0813109 3.15789475,12.6907857 3.15789475,14.6761736 L3.15789475,36.3238264 C3.15789475,38.3092143 4.80737199,39.9186891 6.84210528,39.9186891 L37.1758547,39.9186891 C39.210588,39.9186891 40.8600653,38.3092142 40.8600653,36.3238264 L40.8606925,18.9689588 C41.071018,18.9894916 41.2842818,19 41.5,19 C42.3926573,19 43.2432869,18.8200582 44.017595,18.4944687 L44.01796,36.3238264 C44.01796,40.0109753 40.9546451,43 37.1758547,43 L6.84210528,43 C3.06331488,43 1.3751567e-08,40.0109753 1.3751567e-08,36.3238264 L1.3751567e-08,14.6761736 C1.3751567e-08,10.9890247 3.06331488,7.99999999 6.84210528,7.99999999 L20.295,7.99999999 L15.3929874,2.55776164 C14.8511685,1.95624253 14.8762533,1.05854704 15.427156,0.486706459 L15.5366022,0.383456825 C16.1530716,-0.145222081 17.0730787,-0.120745637 17.659132,0.416796821 L17.7649479,0.523588737 L23.157915,6.51077943 L28.5508821,0.523588737 C29.1265647,-0.115525318 30.124229,-0.178264512 30.7792278,0.383456825 Z" id="Combined-Shape"></path>
            <ellipse id="Oval" cx="42.0493827" cy="12.2211072" rx="3.95061728" ry="3.90299379"></ellipse>
        </g>
    </g>
</svg>